<svg width="256" height="80" viewBox="0 0 256 80" fill="none" xmlns="http://www.w3.org/2000/svg">
<g clip-path="url(#clip0_2316_2230)">
<path d="M74.4078 42.679V23.7478H83.6683C85.2278 23.7478 86.5588 23.9983 87.6659 24.501C88.7729 25.0036 89.6091 25.7286 90.1806 26.676C90.749 27.6217 91.0356 28.7413 91.0356 30.0316C91.0356 31.3218 90.749 32.5166 90.1806 33.4624C89.6091 34.4097 88.7776 35.1331 87.6784 35.6373C86.5792 36.14 85.2435 36.3905 83.6683 36.3905H76.5546V33.0975H83.6197C84.3729 33.0975 85.0149 32.9801 85.5426 32.7452C86.0703 32.5103 86.4758 32.1627 86.7624 31.7023C87.0474 31.2404 87.1883 30.683 87.1883 30.0316C87.1883 29.042 86.8751 28.2841 86.2472 27.7548C85.6177 27.2271 84.7409 26.9625 83.6197 26.9625H78.515V42.6759H74.4094L74.4078 42.679Z" fill="#2E2A2A"/>
<path d="M95.7661 42.7275C95.1977 42.7275 94.6496 42.6476 94.1219 42.4879C93.5942 42.3298 93.1276 42.1074 92.7267 41.8224L93.9074 38.8551C94.1078 38.9898 94.3521 39.0931 94.6371 39.1699C94.9221 39.245 95.1898 39.2842 95.4404 39.2842C95.7582 39.2842 96.0338 39.2341 96.2687 39.1323C96.5036 39.0321 96.7165 38.8645 96.9107 38.6296C97.1033 38.3948 97.2912 38.0597 97.476 37.6244L98.1039 36.1916L98.2041 38.1019L90.6629 23.9983H94.8359L100.29 34.5568H99.1843L103.887 23.9983H107.909L101.245 37.9501C100.677 39.1573 100.135 40.1 99.6243 40.778C99.1123 41.4576 98.5548 41.9508 97.9536 42.2609C97.3507 42.5709 96.6194 42.7259 95.7645 42.7259L95.7661 42.7275Z" fill="#2E2A2A"/>
<path d="M117.694 42.7275C115.8 42.7275 114.112 42.3219 112.629 41.5077C111.146 40.695 109.984 39.5676 109.146 38.1255C108.307 36.6849 107.89 35.058 107.89 33.2478C107.89 31.4377 108.312 29.7748 109.159 28.3076C110.006 26.8419 111.179 25.6926 112.677 24.8627C114.177 24.0328 115.851 23.6194 117.694 23.6194C119.187 23.6194 120.535 23.837 121.74 24.2723C122.948 24.7077 123.962 25.2447 124.783 25.882L123.148 28.8493C122.227 28.1964 121.365 27.7391 120.56 27.4792C119.753 27.2193 118.84 27.0893 117.818 27.0893C116.695 27.0893 115.677 27.3446 114.763 27.8566C113.85 28.3686 113.13 29.0842 112.602 30.0065C112.073 30.9288 111.808 31.9842 111.808 33.1742C111.808 34.3643 112.06 35.3993 112.563 36.3294C113.066 37.2595 113.77 37.9798 114.674 38.4919C115.58 39.0039 116.609 39.2576 117.768 39.2576C119.024 39.2576 120.195 39.0399 121.274 38.6046C122.354 38.1693 123.364 37.5148 124.304 36.6442V40.6919C123.632 41.2948 122.685 41.7849 121.462 42.1622C120.239 42.538 118.981 42.7275 117.691 42.7275H117.694Z" fill="#2E2A2A"/>
<path d="M150.973 42.7275C150.454 42.7275 149.968 42.668 149.517 42.5521C149.065 42.4347 148.67 42.2749 148.335 42.0745L149.165 38.9318C149.281 39.0164 149.44 39.0822 149.641 39.1323C149.843 39.1824 150.043 39.2074 150.244 39.2074C150.746 39.2074 151.152 39.0728 151.463 38.805C151.775 38.5373 152.012 38.1098 152.179 37.5226C152.347 36.9369 152.481 36.1243 152.582 35.0845L153.587 23.9983H166.97V42.3501H163.175V27.3915H157.008L156.329 35.9646C156.21 37.5069 155.942 38.7753 155.525 39.7727C155.106 40.7702 154.518 41.5124 153.764 41.9978C153.011 42.4832 152.08 42.7275 150.973 42.7275Z" fill="#2E2A2A"/>
<path d="M180.122 42.7275C178.227 42.7275 176.536 42.3125 175.044 41.4826C173.551 40.6527 172.386 39.5128 171.549 38.0644C170.709 36.6144 170.293 34.9843 170.293 33.1742C170.293 31.3641 170.711 29.734 171.549 28.284C172.385 26.834 173.551 25.6941 175.044 24.8642C176.536 24.0343 178.227 23.6209 180.122 23.6209C182.016 23.6209 183.684 24.0359 185.175 24.8642C186.667 25.6941 187.83 26.834 188.67 28.284C189.509 29.734 189.926 31.3625 189.926 33.1742C189.926 34.9859 189.508 36.6144 188.67 38.0644C187.83 39.5143 186.667 40.6527 185.175 41.4826C183.683 42.3125 181.999 42.7275 180.122 42.7275ZM180.122 39.3327C181.229 39.3327 182.233 39.0681 183.139 38.5404C184.044 38.0127 184.747 37.283 185.25 36.3529C185.753 35.4228 186.005 34.3627 186.005 33.1726C186.005 31.9826 185.753 30.9225 185.25 29.9924C184.747 29.0623 184.043 28.3326 183.139 27.8049C182.233 27.2772 181.229 27.0125 180.122 27.0125C179.015 27.0125 177.986 27.2772 177.079 27.8049C176.174 28.3326 175.471 29.0623 174.969 29.9924C174.466 30.9225 174.214 31.9826 174.214 33.1726C174.214 34.3627 174.466 35.4228 174.969 36.3529C175.471 37.283 176.176 38.0127 177.079 38.5404C177.986 39.0681 178.999 39.3327 180.122 39.3327Z" fill="#2E2A2A"/>
<path d="M141.871 23.9967V25.4843C141.556 25.2541 141.243 25.0443 140.908 24.8564C139.42 24.039 137.745 23.6209 135.86 23.6209C133.974 23.6209 132.277 24.0406 130.79 24.8564C129.282 25.6941 128.129 26.8262 127.291 28.2715C126.454 29.7387 126.034 31.3515 126.034 33.1742C126.034 34.9968 126.454 36.6097 127.291 38.055C128.129 39.5002 129.282 40.6527 130.79 41.4701C132.277 42.3078 133.974 42.7275 135.86 42.7275C137.745 42.7275 139.42 42.3078 140.908 41.4701C141.243 41.2822 141.558 41.0724 141.871 40.8625V42.3501H145.664V23.9983H141.871V23.9967ZM140.991 36.3576C140.488 37.2799 139.776 38.0127 138.876 38.5357C137.975 39.0587 136.97 39.3311 135.858 39.3311C134.746 39.3311 133.721 39.0587 132.82 38.5357C131.918 38.0127 131.208 37.2783 130.705 36.3576C130.202 35.4149 129.95 34.3674 129.95 33.1726C129.95 31.9779 130.202 30.91 130.705 29.9877C131.208 29.0654 131.92 28.3326 132.82 27.8096C133.721 27.2647 134.726 27.0141 135.858 27.0141C136.99 27.0141 137.974 27.2662 138.876 27.8096C139.776 28.3326 140.488 29.067 140.991 29.9877C141.494 30.91 141.746 31.9779 141.746 33.1726C141.746 34.3674 141.494 35.4149 140.991 36.3576Z" fill="#2E2A2A"/>
<path d="M242.797 23.9967V25.4843C242.482 25.2541 242.169 25.0443 241.834 24.8564C240.346 24.039 238.671 23.6209 236.785 23.6209C234.9 23.6209 233.203 24.0406 231.715 24.8564C230.207 25.6941 229.055 26.8262 228.217 28.2715C227.379 29.7387 226.96 31.3515 226.96 33.1742C226.96 34.9968 227.379 36.6097 228.217 38.055C229.055 39.5002 230.207 40.6527 231.715 41.4701C233.203 42.3078 234.9 42.7275 236.785 42.7275C238.671 42.7275 240.346 42.3078 241.834 41.4701C242.169 41.2822 242.483 41.0724 242.797 40.8625V42.3501H246.589V23.9983H242.797V23.9967ZM241.917 36.3576C241.414 37.2799 240.702 38.0127 239.801 38.5357C238.901 39.0587 237.896 39.3311 236.784 39.3311C235.672 39.3311 234.646 39.0587 233.746 38.5357C232.844 38.0127 232.133 37.2783 231.631 36.3576C231.128 35.4149 230.876 34.3674 230.876 33.1726C230.876 31.9779 231.128 30.91 231.631 29.9877C232.133 29.0654 232.846 28.3326 233.746 27.8096C234.646 27.2647 235.652 27.0141 236.784 27.0141C237.916 27.0141 238.899 27.2662 239.801 27.8096C240.702 28.3326 241.414 29.067 241.917 29.9877C242.419 30.91 242.671 31.9779 242.671 33.1726C242.671 34.3674 242.419 35.4149 241.917 36.3576Z" fill="#2E2A2A"/>
<path d="M198.153 36.8931C196.762 36.8931 195.585 36.6457 194.622 36.1509C193.659 35.6561 192.926 34.9233 192.422 33.9509C191.919 32.9785 191.667 31.7806 191.667 30.3557V23.9952H195.464V30.1036C195.464 31.1934 195.76 32.0311 196.357 32.6183C196.952 33.2055 197.785 33.4983 198.859 33.4983C199.933 33.4983 201.38 33.3136 202.16 32.9456C202.939 32.5761 203.613 32.0405 204.183 31.3359V34.7542C203.596 35.4259 202.828 35.9473 201.881 36.3247C200.935 36.7021 199.36 36.89 198.153 36.89V36.8931ZM202.975 42.3486V23.9967H206.773V42.3486H202.975Z" fill="#2E2A2A"/>
<path d="M214.475 32.9268L214.935 33.4498V32.4022L214.475 32.9252V32.9268ZM211.165 24.0014V42.3532H214.935V24.0014H211.165Z" fill="#2E2A2A"/>
<path d="M227.306 42.6226H222.11L219.805 38.9977C218.235 36.5471 215.972 34.5976 213.31 33.4248L212.765 33.1727C216.285 31.8104 219.176 29.15 220.811 25.6942L221.481 24.2692H226.676L226.006 25.6942C225.901 25.904 225.776 26.1342 225.651 26.344C223.963 29.5039 219.323 32.8595 218.507 33.1742L219.052 33.4263C221.712 34.5992 223.43 36.5487 225.002 38.9992L227.307 42.6242L227.306 42.6226Z" fill="#2E2A2A"/>
<path d="M219.544 31.2983H212.765V35.058H219.544V31.2983Z" fill="#2E2A2A"/>
<path d="M253.095 26.809C251.481 26.8012 250.188 25.5031 250.194 23.8934C250.2 22.2853 251.497 20.9997 253.097 21.0013C254.713 21.0013 256.002 22.3041 256 23.9059C256 25.5203 254.697 26.8059 253.094 26.8106L253.095 26.809ZM253.095 26.3612C254.44 26.3643 255.549 25.2761 255.555 23.9138C255.562 22.5687 254.472 21.4538 253.105 21.4491C251.758 21.4444 250.645 22.5358 250.643 23.9028C250.642 25.251 251.733 26.3596 253.095 26.3612Z" fill="#2E2A2A"/>
<path d="M252.651 24.3522V25.2431H252.206V22.564C252.281 22.564 252.355 22.564 252.428 22.564C252.627 22.564 252.827 22.564 253.026 22.564C253.228 22.564 253.432 22.553 253.631 22.5718C253.988 22.6047 254.246 22.7941 254.375 23.1308C254.494 23.4455 254.45 23.7493 254.243 24.0202C254.146 24.147 254.018 24.2363 253.869 24.2927C253.861 24.2958 253.852 24.2989 253.839 24.3036C253.964 24.6152 254.088 24.9268 254.215 25.2447C254.193 25.2447 254.176 25.2447 254.16 25.2447C254.039 25.2447 253.919 25.2431 253.798 25.2447C253.773 25.2447 253.762 25.2353 253.753 25.2134C253.643 24.9378 253.532 24.6622 253.424 24.3851C253.415 24.36 253.402 24.3506 253.374 24.3506C253.134 24.3506 252.895 24.3506 252.651 24.3506V24.3522ZM252.654 23.0118V23.9028C252.654 23.9028 252.665 23.9043 252.668 23.9043C252.962 23.9043 253.258 23.9059 253.552 23.9028C253.609 23.9028 253.668 23.8887 253.722 23.8683C253.947 23.7822 254.054 23.5113 253.952 23.2749C253.875 23.0948 253.728 23.0149 253.537 23.0118C253.407 23.0102 253.278 23.0118 253.149 23.0118C252.984 23.0118 252.82 23.0118 252.654 23.0118Z" fill="#2E2A2A"/>
<path d="M74.6647 62.1707V52.7693H77.4722C78.227 52.7693 78.8784 52.8977 79.4233 53.1561C79.9682 53.4129 80.3832 53.7793 80.6666 54.2506C80.95 54.7235 81.0909 55.281 81.0909 55.9245C81.0909 56.5681 80.95 57.1412 80.6666 57.6172C80.3832 58.0933 79.9682 58.4581 79.4233 58.7118C78.8784 58.9654 78.227 59.0923 77.4722 59.0923H75.4116V57.7143H77.4472C77.8762 57.7143 78.2426 57.6407 78.548 57.4951C78.8533 57.3495 79.0866 57.1428 79.2495 56.8766C79.4123 56.6104 79.4938 56.2925 79.4938 55.923C79.4938 55.3655 79.3137 54.9271 78.9535 54.6092C78.5934 54.2914 78.0908 54.1332 77.4472 54.1332H76.2102V62.1692H74.6647V62.1707Z" fill="#2E2A2A"/>
<path d="M82.804 62.1707V55.436H84.2727V60.9353H85.5865C85.9733 60.9353 86.2708 60.8444 86.4822 60.6644C86.6936 60.4843 86.7985 60.2306 86.7985 59.9049C86.7985 59.5792 86.6936 59.3146 86.4822 59.1392C86.2723 58.9638 85.9733 58.8746 85.5865 58.8746H83.565V57.625H85.6773C86.4931 57.625 87.1289 57.8255 87.583 58.2232C88.0386 58.6225 88.2657 59.1831 88.2657 59.9034C88.2657 60.3762 88.1639 60.7818 87.9635 61.12C87.7615 61.4598 87.4655 61.7182 87.0756 61.8998C86.6857 62.0815 86.2191 62.1707 85.6789 62.1707H82.8071H82.804ZM89.3461 62.1707V55.436H90.8149V62.1707H89.3461Z" fill="#2E2A2A"/>
<path d="M96.2484 62.3633C95.5015 62.3633 94.8642 62.1911 94.3365 61.8482C93.8088 61.5052 93.4064 61.0089 93.1324 60.3606C92.8568 59.7123 92.7205 58.9294 92.7205 58.0102C92.7205 56.8421 92.8505 55.8838 93.1136 55.1322C93.3751 54.3806 93.7838 53.8059 94.3365 53.4066C94.8908 53.0073 95.6095 52.7646 96.4942 52.6785C96.9405 52.6362 97.3962 52.5626 97.8597 52.4593C98.3232 52.3559 98.688 52.2526 98.9542 52.1508L99.3269 53.593C99.1891 53.6619 98.9291 53.7308 98.5471 53.7997C98.165 53.8686 97.4807 53.9719 96.4927 54.1081C95.9337 54.1849 95.5125 54.3039 95.2243 54.462C94.9362 54.6202 94.7107 54.8723 94.5479 55.2152C94.385 55.5581 94.2394 56.0733 94.1095 56.7607H94.2003C94.4571 56.3661 94.8125 56.0561 95.2635 55.8337C95.7145 55.6114 96.2234 55.4986 96.7902 55.4986C97.357 55.4986 97.8847 55.627 98.3232 55.8854C98.7616 56.1422 99.0998 56.5102 99.341 56.9862C99.5805 57.4622 99.7011 58.0181 99.7011 58.6538C99.7011 59.4101 99.5618 60.0662 99.283 60.6237C99.0043 61.1811 98.6019 61.6117 98.0789 61.9108C97.5559 62.2114 96.9452 62.3618 96.25 62.3618L96.2484 62.3633ZM96.2609 61.037C96.6728 61.037 97.0266 60.9462 97.3241 60.7662C97.6217 60.5861 97.8456 60.3261 98.0006 59.9864C98.1556 59.6466 98.2324 59.2332 98.2324 58.7431C98.2324 58.1167 98.0773 57.636 97.7689 57.3009C97.4604 56.9658 97.0125 56.7983 96.4301 56.7983C95.9744 56.7983 95.5375 56.9204 95.1163 57.1647C94.6951 57.409 94.3991 57.7159 94.2285 58.0854C94.2034 58.7039 94.2629 59.2332 94.4085 59.6763C94.5542 60.1179 94.7859 60.4561 95.1038 60.6879C95.4216 60.9196 95.8084 61.0355 96.2625 61.0355L96.2609 61.037Z" fill="#2E2A2A"/>
<path d="M103.537 62.3633C103.057 62.3633 102.634 62.2725 102.269 62.0924C101.904 61.9123 101.622 61.6587 101.425 61.333C101.228 61.0073 101.129 60.633 101.129 60.2118C101.129 59.5416 101.377 59.0139 101.87 58.6272C102.363 58.2404 103.035 58.0478 103.885 58.0478C104.306 58.0478 104.724 58.0979 105.141 58.1966C105.557 58.2952 105.933 58.4346 106.268 58.6146L105.882 59.1173V58.1778C105.882 57.6031 105.744 57.1866 105.47 56.9282C105.194 56.6699 104.757 56.5415 104.156 56.5415C103.735 56.5415 103.301 56.6213 102.855 56.7795C102.408 56.9392 102.044 57.138 101.76 57.3776V55.9229C102.095 55.7163 102.495 55.5518 102.958 55.4266C103.422 55.3029 103.885 55.2402 104.349 55.2402C105.362 55.2402 106.115 55.4814 106.608 55.9621C107.101 56.4428 107.349 57.1772 107.349 58.1637V62.1691H105.946L105.882 61.1388H105.817C105.628 61.5084 105.326 61.8043 104.909 62.0266C104.493 62.249 104.035 62.3617 103.537 62.3617V62.3633ZM103.86 61.1654C104.255 61.1654 104.605 61.073 104.909 60.8883C105.214 60.7035 105.452 60.453 105.623 60.1351C105.794 59.8172 105.882 59.4571 105.882 59.0531L106.229 59.6841C105.971 59.5291 105.731 59.4101 105.507 59.324C105.283 59.2379 105.056 59.1752 104.825 59.1376C104.593 59.0985 104.344 59.0797 104.078 59.0797C103.622 59.0797 103.267 59.1737 103.008 59.3631C102.751 59.5526 102.621 59.8141 102.621 60.1492C102.621 60.4577 102.736 60.7051 102.963 60.8898C103.19 61.0746 103.489 61.167 103.858 61.167L103.86 61.1654Z" fill="#2E2A2A"/>
<path d="M113.454 62.1707V55.436H114.909V60.6002L114.638 60.5093L118.463 55.436H119.829V62.1707H118.386V57.0191L118.643 57.0958L114.832 62.1691H113.454V62.1707Z" fill="#2E2A2A"/>
<path d="M125.146 62.1707L126.332 55.436H127.606L129.667 60.691H129.487L131.56 55.436H132.847L134.032 62.1707H132.474L131.728 57.4825H131.92L130.066 62.1707H129.036L127.182 57.4825H127.401L126.629 62.1707H125.148H125.146Z" fill="#2E2A2A"/>
<path d="M138.849 62.3633C138.188 62.3633 137.585 62.213 137.04 61.9124C136.496 61.6117 136.063 61.1905 135.746 60.6503C135.428 60.1101 135.27 59.4962 135.27 58.8088C135.27 58.1214 135.428 57.506 135.746 56.9611C136.063 56.4162 136.494 55.9934 137.04 55.6928C137.585 55.3921 138.188 55.2418 138.849 55.2418C139.51 55.2418 140.111 55.3921 140.651 55.6928C141.192 55.9934 141.622 56.4162 141.938 56.9611C142.256 57.506 142.415 58.123 142.415 58.8088C142.415 59.4947 142.256 60.1101 141.938 60.6503C141.621 61.1905 141.192 61.6117 140.651 61.9124C140.111 62.213 139.51 62.3633 138.849 62.3633ZM138.849 61.0621C139.236 61.0621 139.59 60.9697 139.912 60.7849C140.235 60.6002 140.487 60.3355 140.672 59.9926C140.856 59.6497 140.949 59.2551 140.949 58.8073C140.949 58.3594 140.856 57.9664 140.672 57.6219C140.487 57.279 140.233 57.0144 139.912 56.8296C139.59 56.6448 139.236 56.5524 138.849 56.5524C138.462 56.5524 138.108 56.6448 137.786 56.8296C137.463 57.0144 137.208 57.279 137.02 57.6219C136.831 57.9648 136.737 58.361 136.737 58.8073C136.737 59.2535 136.831 59.6481 137.02 59.9926C137.21 60.3355 137.465 60.6002 137.786 60.7849C138.108 60.9697 138.462 61.0621 138.849 61.0621Z" fill="#2E2A2A"/>
<path d="M144.27 65.0034V55.4344H145.648L145.712 56.5039H145.776C145.897 56.2722 146.066 56.0623 146.285 55.8729C146.504 55.6834 146.768 55.5315 147.078 55.4156C147.388 55.2998 147.726 55.2418 148.095 55.2418C148.645 55.2418 149.132 55.3796 149.556 55.6536C149.981 55.9292 150.31 56.3144 150.541 56.8124C150.773 57.3103 150.889 57.885 150.889 58.5379C150.889 59.3365 150.734 60.0255 150.425 60.6049C150.117 61.1842 149.708 61.6227 149.202 61.9186C148.695 62.2146 148.142 62.3633 147.541 62.3633C147.215 62.3633 146.851 62.307 146.447 62.1958C146.043 62.0846 145.64 61.9171 145.236 61.6931V60.2635C145.665 60.5548 146.036 60.7568 146.349 60.8695C146.663 60.9807 146.987 61.037 147.322 61.037C147.743 61.037 148.111 60.9447 148.429 60.7599C148.747 60.5751 148.991 60.3027 149.163 59.9425C149.336 59.5824 149.42 59.1439 149.42 58.6288C149.42 57.9758 149.274 57.47 148.982 57.1099C148.69 56.7497 148.294 56.5681 147.796 56.5681C147.341 56.5681 146.938 56.7028 146.586 56.9737C146.234 57.2445 145.95 57.6877 145.736 58.3062V65.0034H144.267H144.27Z" fill="#2E2A2A"/>
<path d="M155.81 62.3633C155.098 62.3633 154.465 62.2114 153.911 61.9061C153.357 61.6008 152.926 61.178 152.618 60.6378C152.309 60.0975 152.154 59.4869 152.154 58.8088C152.154 58.1308 152.309 57.5217 152.618 56.9799C152.926 56.4397 153.352 56.0138 153.892 55.7053C154.432 55.3968 155.038 55.2418 155.709 55.2418C156.379 55.2418 156.947 55.3827 157.44 55.6662C157.934 55.9496 158.314 56.3536 158.58 56.8766C158.847 57.3996 158.98 58.0103 158.98 58.7055V59.0014H153.004V57.8678H157.976L157.552 58.2545C157.552 57.9367 157.478 57.6454 157.332 57.3792C157.187 57.113 156.975 56.8985 156.701 56.7356C156.426 56.5728 156.1 56.4914 155.723 56.4914C155.345 56.4914 154.977 56.5822 154.647 56.7623C154.317 56.9423 154.052 57.207 153.855 57.5546C153.657 57.9022 153.559 58.3203 153.559 58.8104C153.559 59.2316 153.656 59.6137 153.848 59.9566C154.041 60.2995 154.317 60.572 154.672 60.774C155.027 60.976 155.442 61.0762 155.915 61.0762C156.473 61.0762 156.969 60.9791 157.403 60.7865C157.837 60.5939 158.186 60.3684 158.452 60.1101V61.5647C158.22 61.7714 157.871 61.9562 157.403 62.1191C156.935 62.2819 156.405 62.3633 155.812 62.3633H155.81Z" fill="#2E2A2A"/>
<path d="M160.78 62.1707V55.436H167.066V62.1707H165.597V56.7748H162.249V62.1707H160.78Z" fill="#2E2A2A"/>
<path d="M169.357 65.0034V55.4344H170.735L170.799 56.5039H170.863C170.984 56.2722 171.153 56.0623 171.372 55.8729C171.591 55.6834 171.854 55.5315 172.164 55.4156C172.474 55.2998 172.812 55.2418 173.182 55.2418C173.732 55.2418 174.219 55.3796 174.643 55.6536C175.067 55.9292 175.396 56.3144 175.628 56.8124C175.86 57.3103 175.975 57.885 175.975 58.5379C175.975 59.3365 175.82 60.0255 175.512 60.6049C175.203 61.1842 174.795 61.6227 174.289 61.9186C173.782 62.2146 173.229 62.3633 172.628 62.3633C172.302 62.3633 171.937 62.307 171.533 62.1958C171.129 62.0846 170.727 61.9171 170.323 61.6931V60.2635C170.752 60.5548 171.123 60.7568 171.436 60.8695C171.749 60.9807 172.073 61.037 172.408 61.037C172.83 61.037 173.198 60.9447 173.515 60.7599C173.833 60.5751 174.078 60.3027 174.25 59.9425C174.422 59.5824 174.507 59.1439 174.507 58.6288C174.507 57.9758 174.361 57.47 174.068 57.1099C173.777 56.7497 173.381 56.5681 172.883 56.5681C172.427 56.5681 172.025 56.7028 171.672 56.9737C171.32 57.2445 171.037 57.6877 170.822 58.3062V65.0034H169.353H169.357Z" fill="#2E2A2A"/>
<path d="M180.819 62.3633C180.158 62.3633 179.555 62.213 179.01 61.9124C178.465 61.6117 178.033 61.1905 177.715 60.6503C177.397 60.1101 177.239 59.4962 177.239 58.8088C177.239 58.1214 177.397 57.506 177.715 56.9611C178.033 56.4162 178.464 55.9934 179.01 55.6928C179.555 55.3921 180.158 55.2418 180.819 55.2418C181.479 55.2418 182.081 55.3921 182.621 55.6928C183.161 55.9934 183.592 56.4162 183.908 56.9611C184.226 57.506 184.384 58.123 184.384 58.8088C184.384 59.4947 184.226 60.1101 183.908 60.6503C183.59 61.1905 183.161 61.6117 182.621 61.9124C182.081 62.213 181.479 62.3633 180.819 62.3633ZM180.819 61.0621C181.205 61.0621 181.559 60.9697 181.882 60.7849C182.204 60.6002 182.457 60.3355 182.641 59.9926C182.826 59.6497 182.918 59.2551 182.918 58.8073C182.918 58.3594 182.826 57.9664 182.641 57.6219C182.457 57.279 182.203 57.0144 181.882 56.8296C181.559 56.6448 181.205 56.5524 180.819 56.5524C180.432 56.5524 180.078 56.6448 179.755 56.8296C179.433 57.0144 179.178 57.279 178.99 57.6219C178.8 57.9648 178.706 58.361 178.706 58.8073C178.706 59.2535 178.8 59.6481 178.99 59.9926C179.179 60.3355 179.434 60.6002 179.755 60.7849C180.078 60.9697 180.432 61.0621 180.819 61.0621Z" fill="#2E2A2A"/>
<path d="M185.197 64.0372V60.8303H186.536L186.78 60.8429H190.514V56.7607H188.197L188.054 58.7822C188.012 59.3569 187.906 59.8423 187.74 60.2369C187.572 60.6315 187.325 60.9713 186.999 61.2547H185.609C185.865 61.0308 186.064 60.8209 186.201 60.6236C186.338 60.4263 186.44 60.1899 186.509 59.9159C186.578 59.6418 186.63 59.2801 186.664 58.8339L186.921 55.4344H191.982V60.8303H193.024V64.0372H191.595V62.1691H186.623V64.0372H185.194H185.197Z" fill="#2E2A2A"/>
<path d="M195.409 65.0033L196.775 61.6414V62.5434L193.568 55.4344H195.152L197.497 60.8554H197.161L199.261 55.4344H200.78L196.917 65.0033H195.411H195.409Z" fill="#2E2A2A"/>
<path d="M202.08 62.1707V55.436H203.549V62.1707H202.08ZM206.704 62.1707L203.369 58.7963L206.627 55.4344H208.379L204.773 59.0922L204.786 58.397L208.572 62.1707H206.704Z" fill="#2E2A2A"/>
<path d="M211.404 62.1707V56.7998H208.957V55.4344H215.319V56.7998H212.872V62.1707H211.403H211.404Z" fill="#2E2A2A"/>
<path d="M216.865 62.1707V55.436H218.333V60.9353H219.647C220.034 60.9353 220.331 60.8444 220.543 60.6644C220.754 60.4843 220.859 60.2306 220.859 59.9049C220.859 59.5792 220.754 59.3146 220.543 59.1392C220.333 58.9638 220.034 58.8746 219.647 58.8746H217.626V57.625H219.738C220.554 57.625 221.19 57.8255 221.644 58.2232C222.099 58.6225 222.326 59.1831 222.326 59.9034C222.326 60.3762 222.225 60.7818 222.024 61.12C221.822 61.4598 221.526 61.7182 221.136 61.8998C220.746 62.0815 220.28 62.1707 219.74 62.1707H216.868H216.865ZM223.407 62.1707V55.436H224.876V62.1707H223.407Z" fill="#2E2A2A"/>
<path d="M29.3629 32.0687C31.3923 32.0687 33.0427 30.4183 33.0427 28.3889V28.0961H30.7268V28.3889C30.7268 29.1406 30.1145 29.7528 29.3629 29.7528C28.6113 29.7528 27.999 29.1406 27.999 28.3889V28.0961H25.6832V28.3889C25.6832 30.4183 27.3336 32.0687 29.3629 32.0687Z" fill="#2E2A2A"/>
<path d="M2.75747 8.46178C2.82167 8.34121 4.3703 5.48822 9.07726 5.48822C11.7361 5.48822 14.0207 6.74873 16.2316 7.9701C18.3878 9.16015 20.616 10.3893 23.1371 10.3893C26.1012 10.3893 27.8659 8.11259 29.4208 6.1036C30.1129 5.21106 30.7659 4.36863 31.4157 3.87226C33.7395 2.10441 36.3263 3.36336 36.4343 3.41816L36.6958 3.54813L38.0268 0.930017L37.7653 0.796919C37.5899 0.707666 33.4341 -1.3577 29.6354 1.53287C28.6771 2.26256 27.8738 3.29915 27.0971 4.30287C25.8429 5.92196 24.6591 7.45024 23.1355 7.45024C21.3708 7.45024 19.5622 6.45279 17.6487 5.39583C15.2311 4.06173 12.4924 2.54911 9.07569 2.54911C2.5038 2.54911 0.225483 6.95543 0.131532 7.14333L0 7.40639L2.62281 8.71858L2.7559 8.46334L2.75747 8.46178Z" fill="#2E2A2A"/>
<path d="M67.4727 46.5184L64.9532 47.7351C64.1656 48.1156 63.295 48.2409 62.4338 48.0984L58.6914 47.483H58.5598C57.2993 47.5033 56.0952 48.0185 55.2058 48.9079C54.3915 48.1407 53.3393 47.6787 52.226 47.602C45.5382 44.0491 44.5908 37.7982 44.5141 32.7467L44.4859 32.4539H44.475C44.107 25.929 43.3241 22.4967 40.042 20.7413L39.9371 20.685C39.6553 20.5331 39.3891 20.3906 39.1166 20.2888C37.5038 19.6828 35.3993 19.5372 34.3783 19.5873C34.0119 19.603 33.6032 19.4479 33.5547 19.1582C33.5124 18.878 33.4968 18.6713 33.5077 18.4035C33.9493 18.4051 34.3736 18.3503 34.7557 18.2375C36.8915 17.6096 38.4276 14.5625 38.3306 11.152C38.2413 8.03598 37.1624 5.65902 37.117 5.56037L37.0998 5.52122L37.117 5.46955L37.0669 5.45232L36.9933 5.29417L36.8289 5.36933C36.5721 5.28165 33.1554 4.19651 30.6125 7.01192C30.1803 7.4895 29.7685 8.02033 29.3332 8.5809C27.7438 10.6275 26.0997 12.7414 23.3438 12.7445C21.6198 12.7445 20.1103 11.8097 18.3643 10.7277C16.1831 9.37636 13.7091 7.84338 10.2548 7.84338C3.68133 7.84338 1.40145 12.2497 1.30906 12.4376L1.17753 12.7007L3.80033 14.0129L3.93343 13.7576C3.99763 13.637 5.54783 10.7841 10.2548 10.7841C12.8729 10.7841 14.8772 12.0258 16.8173 13.2284C18.7668 14.4372 20.7836 15.6867 23.35 15.6867C23.9404 15.6867 24.5229 15.6225 25.0866 15.4957C25.1022 15.8684 25.1022 16.3679 25.0412 16.8674L24.3616 17.251C23.5943 17.7271 22.8349 17.9588 22.0378 17.9588C20.71 17.9588 19.5106 17.2166 18.1216 16.3554C16.3115 15.2342 14.2602 13.9627 11.3665 13.9627C5.84221 13.9627 3.90994 17.6989 3.83009 17.857L3.69855 18.1185L6.31353 19.4448L6.44819 19.1896C6.4983 19.0956 7.69931 16.9019 11.365 16.9019C13.4225 16.9019 14.9524 17.8492 16.5714 18.8529C18.1937 19.8582 19.8707 20.8979 22.0394 20.8979C22.6751 20.8979 23.3078 20.8087 23.9294 20.6317C23.6037 21.269 22.9116 22.315 21.4475 23.9435C20.7773 24.6873 19.3915 26.6618 19.235 26.8842L18.9923 27.2302L18.9719 27.653C18.9625 27.8534 18.9155 29.6604 20.342 31.4455C20.5409 31.6929 20.7319 31.9231 20.9151 32.1298C19.0392 34.0511 15.1731 38.8504 15.1731 45.7527V45.8185C13.4022 49.0473 12.5049 52.6221 12.5049 56.4475C12.5049 69.2546 22.9241 79.6723 35.7297 79.6723C46.8739 79.6723 56.4334 71.7694 58.5332 60.8538C63.9104 59.3443 67.5917 54.4244 67.5071 48.8249L67.4727 46.5231V46.5184ZM55.4234 61.3064C55.3655 61.5412 55.3029 61.7745 55.2371 62.0063C55.2935 61.7761 55.342 61.5428 55.3858 61.3064H55.3937C55.4046 61.3064 55.414 61.3064 55.4234 61.3064ZM23.469 26.095C23.5285 26.0214 23.5833 25.9572 23.6319 25.9039C24.0296 25.4624 24.3945 25.038 24.7186 24.6403C24.883 24.4399 25.038 24.2441 25.1836 24.0531C25.9243 23.087 26.441 22.2555 26.7605 21.5086L26.7855 21.4507C26.9296 21.1156 27.1989 20.4924 27.6295 19.0048C27.7971 18.4254 27.9129 17.7819 27.974 17.0694L27.9771 17.0459C28.1071 15.8433 27.9912 14.7347 27.9208 14.2305C28.4453 13.8704 28.9542 13.4444 29.4725 12.934C29.9172 12.494 30.3604 12.0007 30.8646 11.3822C31.0039 11.21 31.1402 11.0409 31.2717 10.8733L31.6647 10.3691C31.8636 10.1139 32.0562 9.86647 32.2425 9.63316C32.4555 9.36853 32.6293 9.16183 32.7921 8.98176C32.8391 8.93009 32.8861 8.87998 32.9346 8.833C33.0286 8.74218 33.1257 8.65763 33.2274 8.58247C33.6862 8.23955 34.2265 8.05321 34.8309 8.02816C34.845 8.02816 34.8606 8.02816 34.8747 8.02816C35.0376 8.60596 35.3116 9.76469 35.3899 11.2366C35.4603 13.7122 34.6101 15.4644 33.7833 15.6695C33.1241 15.8339 31.4518 15.242 31.0352 15.0385L30.769 14.9085L29.6338 17.2918L29.8922 17.4202C29.9407 17.4436 30.329 17.6128 30.5999 17.7271C30.5905 17.7944 30.5811 17.8649 30.5718 17.9353C30.5044 18.4192 30.4277 18.9688 30.4825 19.5121C30.5075 19.6844 30.5984 20.2653 30.7048 20.4751C31.2654 21.5759 32.4304 21.9799 33.3089 22.1255C33.4185 22.1428 33.5234 22.16 33.6267 22.1756C33.8319 22.2054 34.026 22.232 34.2249 22.2539L34.2374 22.2994L34.5271 22.2868L34.6884 22.3025C34.87 22.3213 35.047 22.3385 35.2129 22.3526C36.4656 22.4653 37.1562 22.528 38.6531 23.3297C39.3531 23.7039 39.8338 24.1831 40.2096 24.8846C40.2816 25.0192 40.3521 25.1649 40.4163 25.3168C40.5149 25.5501 40.6073 25.8084 40.6919 26.0856C40.7201 26.1795 40.7482 26.2766 40.7749 26.3768C40.8829 26.7793 40.9769 27.224 41.063 27.7329C41.1898 28.4798 41.2947 29.3551 41.384 30.4073C41.456 31.2435 41.5186 32.1924 41.575 33.3089L41.5891 33.6236C41.5985 33.9603 41.611 34.3267 41.6345 34.7213C41.7081 36.0178 41.86 37.2032 42.0964 38.3462C42.1669 38.6892 42.2468 39.0321 42.3329 39.3625C42.4237 39.7132 42.5255 40.064 42.6351 40.4053C42.751 40.7655 42.8762 41.1225 43.0093 41.4654C43.1503 41.8287 43.3037 42.1888 43.465 42.5333C43.7218 43.0845 44.0083 43.6216 44.3168 44.1305C44.8758 45.0512 45.5272 45.9171 46.2553 46.7032C46.3697 46.8269 46.4871 46.9506 46.6077 47.0727C46.9741 47.4438 47.3655 47.804 47.7727 48.1422C47.7852 48.1516 47.7962 48.1626 47.8087 48.172L47.6552 48.1939C47.0524 48.2831 46.4229 48.2409 45.8561 48.0749L45.2955 47.9073L45.2642 47.8964C43.3992 47.2841 41.7989 45.7496 41.1225 45.0277C41.1225 45.0105 41.1225 44.9917 41.1225 44.9729C41.1225 42.9404 40.576 41.0536 39.5441 39.5206C39.1323 38.9099 38.6453 38.3556 38.0957 37.8765C37.8514 37.662 37.5915 37.4615 37.3221 37.2768C37.2579 36.8712 37.1718 36.3028 37.0935 35.7015L37.0575 35.415C36.9761 34.7589 36.9229 34.203 36.9009 33.7661C36.8931 33.6064 36.8884 33.4561 36.8884 33.3198C36.8884 33.2478 36.8915 33.1664 36.8962 33.0787C36.9056 32.8939 36.926 32.6778 36.9526 32.4367C36.9667 32.3146 36.9808 32.1877 36.998 32.0546C37.0497 31.6553 37.1139 31.2106 37.1859 30.755C37.2579 30.2977 37.3378 29.828 37.4177 29.3786C37.4709 29.0779 37.5226 28.7867 37.5743 28.5142C37.6494 28.104 37.7214 27.736 37.7794 27.4385L37.8906 26.8795L35.0094 26.3001L34.9514 26.5882C34.8497 27.0971 33.9493 31.6099 33.9493 33.3198C33.9493 35.0297 34.5067 38.2695 34.5302 38.4057L34.6398 39.0383L35.4196 39.5441C35.5496 39.624 35.6749 39.7085 35.7954 39.7978C35.9536 39.9152 36.1055 40.0389 36.2511 40.172C36.1728 40.1689 36.093 40.1658 36.0147 40.1626C35.429 40.1438 34.8199 40.1564 34.2045 40.1971C33.8538 40.2206 33.4827 40.255 33.1022 40.3004C32.7358 40.3443 32.3897 40.3959 32.0421 40.4539C28.7741 41.0113 26.6101 41.4341 24.7092 42.7635L23.9576 40.4022C24.0828 40.3129 24.2097 40.2253 24.3381 40.1391L25.763 39.1871L25.2901 38.0675C25.2666 38.0111 25.2384 37.9422 25.2056 37.8608C25.1351 37.6823 24.9957 37.3206 24.8595 36.8978C24.8188 36.7741 24.7812 36.6488 24.7436 36.5236C24.6434 36.1775 24.5745 35.8816 24.5416 35.6451C24.5338 35.595 24.5291 35.5465 24.5244 35.5011L24.5197 35.4337C24.5025 35.2051 24.49 34.9264 24.4853 34.607C24.4853 34.4958 24.4821 34.3815 24.4821 34.2672C24.4821 33.6487 24.4978 33.0161 24.5119 32.5948L24.526 32.2237L24.8063 31.1073L23.7321 30.8066L23.7243 30.8004C23.6804 30.7628 23.6209 30.7096 23.5473 30.6375C23.4706 30.5624 23.3766 30.4653 23.2639 30.3447C23.1512 30.221 23.0196 30.0723 22.8709 29.8937C22.7957 29.8029 22.7159 29.7058 22.6313 29.5994C22.3604 29.2611 22.1584 28.8885 22.0331 28.4954C21.994 28.3733 21.9627 28.2512 21.9408 28.1306C22.1161 27.8848 22.3275 27.5919 22.5452 27.2944C22.9366 26.7605 23.2467 26.3549 23.4643 26.0887L23.469 26.095ZM22.1568 38.0832C20.9934 38.9131 19.9161 39.8228 18.9406 40.8015C19.6452 38.733 20.6896 37.0497 21.6072 35.8393C21.684 36.5737 21.9329 37.4271 22.1568 38.0816V38.0832ZM43.6169 68.1554C38.7737 68.1554 33.7645 65.1615 33.7645 60.1508C33.7645 57.7613 35.8048 54.069 37.1797 52.7458C38.3509 51.6184 39.7649 50.0917 40.5368 48.1172C41.3198 48.7827 42.1262 49.3354 42.9404 49.766C43.1769 52.8962 44.4953 55.7632 46.6625 57.8568C48.2831 59.4211 50.2796 60.5046 52.4546 60.9995C51.5871 65.1631 47.9167 68.1554 43.6185 68.1554H43.6169ZM40.8375 45.1373H40.8297H40.8391H40.8375ZM21.5133 42.4049L22.6 45.8154C22.7581 46.3133 23.1747 46.6922 23.6851 46.805C24.1878 46.9146 24.7358 46.7423 25.085 46.3603C26.8106 44.4719 28.3201 44.0788 32.5432 43.3585C35.3899 42.8715 37.3049 43.1847 38.0237 43.3507C38.1348 43.8706 38.1912 44.4186 38.1912 44.9823C38.1912 47.234 36.9714 48.8688 35.1425 50.6304C33.3402 52.3653 30.827 56.8265 30.827 60.1539C30.827 67.0045 37.3315 71.0976 43.6185 71.0976C48.3693 71.0976 52.5094 68.3715 54.4369 64.2815C51.3178 71.6645 43.9332 76.7347 35.7312 76.7347C24.5448 76.7347 15.4456 67.634 15.4456 56.4491C15.4456 50.9983 17.5423 46.1536 21.5148 42.4081L21.5133 42.4049ZM55.3467 58.3719C52.8586 58.4221 50.4941 57.4841 48.6871 55.7304C47.3796 54.4604 46.484 52.8758 46.0831 51.1252C46.7549 51.216 47.4297 51.2097 48.0984 51.1095L51.9394 50.5317C52.417 50.5458 52.868 50.7353 53.2109 51.0688C53.5773 51.4227 53.7824 51.8987 53.7902 52.4092L53.8216 54.462L56.7591 54.4182L56.7278 52.3669C56.7121 51.3522 57.4857 50.5098 58.4925 50.4362L61.9577 51.0062C62.7626 51.1393 63.569 51.1346 64.3598 50.9936C63.4469 55.2308 59.7233 58.3077 55.3483 58.3751L55.3467 58.3719Z" fill="#2E2A2A"/>
</g>
<defs>
<clipPath id="clip0_2316_2230">
<rect width="256" height="79.6675" fill="white"/>
</clipPath>
</defs>
</svg>
