<svg width="9" height="11" viewBox="0 0 9 11" fill="none" xmlns="http://www.w3.org/2000/svg">
<path d="M7.79069 3.81997C6.83785 2.77793 6.27159 1.86062 5.96431 1.27457C5.63153 0.639788 5.52247 0.246164 5.52164 0.243031C5.4697 0.0486235 5.25426 -0.0534583 5.06879 0.0284579C5.02744 0.0467088 4.04995 0.488103 3.50224 1.57274C3.2273 2.11724 3.17231 2.72348 3.17461 3.13614C3.17595 3.37629 3.00411 3.58482 2.76603 3.63196C2.59911 3.66498 2.4274 3.6136 2.30692 3.4943L1.92096 3.11214C1.77766 2.97025 1.54019 2.98886 1.42122 3.1513C1.39769 3.18343 0.843673 3.93998 0.742813 4.09115C0.250288 4.82938 -0.00653044 5.68935 0.00012619 6.57808C0.00904563 7.76504 0.480458 8.87709 1.32752 9.70941C2.17454 10.5417 3.30122 11 4.50003 11C6.98133 11 9 9.00114 9 6.54423C9.00002 5.65342 8.55923 4.66047 7.79069 3.81997Z" fill="#FEFEFE"/>
</svg>
